<?xml version="1.0" encoding="UTF-8"?>
<!DOCTYPE svg PUBLIC "-//W3C//DTD SVG 1.1//EN" "http://www.w3.org/Graphics/SVG/1.1/DTD/svg11.dtd">
<!-- Creator: CorelDRAW X7 -->
<svg xmlns="http://www.w3.org/2000/svg" xml:space="preserve" width="298px" height="54px" version="1.1" style="shape-rendering:geometricPrecision; text-rendering:geometricPrecision; image-rendering:optimizeQuality; fill-rule:evenodd; clip-rule:evenodd"
viewBox="0 0 568 103"
 xmlns:xlink="http://www.w3.org/1999/xlink">
 <defs>
  <style type="text/css">
   <![CDATA[
    .str0 {stroke:black;stroke-width:1.90563}
    .str1 {stroke:white;stroke-width:2.77704}
    .fil1 {fill:#FC4349}
    .fil0 {fill:white;fill-rule:nonzero}
   ]]>
  </style>
 </defs>
 <g id="Слой_x0020_1">
  <metadata id="CorelCorpID_0Corel-Layer"/>
  <polygon class="fil0 str0" points="46,77 72,12 51,12 37,51 24,12 1,12 27,77 "/>
  <polygon class="fil0 str0" points="126,77 126,60 97,60 97,12 77,12 77,77 "/>
  <path class="fil0 str0" d="M149 77l4 -12 22 0 4 12 22 0 -27 -65 -19 0 -27 65 21 0zm15 -42l5 15 -10 0 5 -15z"/>
  <path class="fil0 str0" d="M233 77c10,0 19,-3 26,-9 6,-6 10,-14 10,-23 0,-10 -4,-18 -10,-24 -7,-6 -16,-9 -26,-9l-28 0 0 65 28 0zm-8 -48l6 0c11,0 17,6 17,16 0,10 -6,15 -17,15l-6 0 0 -31z"/>
  <path class="fil0 str0" d="M277 12l0 65 20 0 0 -23 10 0c7,0 13,-1 17,-5 5,-4 7,-10 7,-16 0,-6 -2,-11 -7,-15 -4,-4 -10,-6 -17,-6l-30 0zm20 28l0 -12 7 0c4,0 7,3 7,6 0,4 -3,6 -7,6l-7 0z"/>
  <polygon class="fil0 str0" points="433,77 433,12 413,12 413,77 "/>
  <polygon class="fil0 str0" points="462,77 462,46 487,77 504,77 504,12 485,12 485,44 460,12 443,12 443,77 "/>
  <polygon class="fil0 str0" points="511,29 529,29 529,77 549,77 549,29 567,29 567,12 511,12 "/>
  <path class="fil1 str1" d="M373 1l-3 0c-1,1 -8,0 -16,6 -10,6 -16,15 -16,27 0,10 4,16 8,24l25 42 30 -49c2,-5 4,-10 4,-17 0,-6 -2,-12 -5,-16 -5,-8 -13,-14 -22,-16 -1,0 -5,0 -5,-1zm-4 14c-6,1 -10,3 -13,7 -1,2 -3,4 -4,6 -1,3 -1,6 -1,9 2,12 12,19 23,18 14,-2 22,-18 15,-30 -1,-2 -3,-4 -5,-6 -3,-2 -9,-5 -15,-4z"/>
 </g>
</svg>
