<?xml version="1.0" encoding="UTF-8"?>
<!DOCTYPE svg PUBLIC "-//W3C//DTD SVG 1.1//EN" "http://www.w3.org/Graphics/SVG/1.1/DTD/svg11.dtd">
<!-- Creator: CorelDRAW X5 -->
<svg xmlns="http://www.w3.org/2000/svg" xml:space="preserve" width="202px" height="40px" style="shape-rendering:geometricPrecision; text-rendering:geometricPrecision; image-rendering:optimizeQuality; fill-rule:evenodd; clip-rule:evenodd"
viewBox="0 0 49.4423 9.79484"
 xmlns:xlink="http://www.w3.org/1999/xlink">
 <defs>
  <style type="text/css">
   <![CDATA[
    .fil0 {fill:#FEFEFE}
    .fil1 {fill:#FEFEFE;fill-rule:nonzero}
    .fil2 {fill:url(#id0)}
   ]]>
  </style>
  <radialGradient id="id0" gradientUnits="userSpaceOnUse" cx="29.9008" cy="1.51524" r="9.91443" fx="29.9008" fy="1.51524">
   <stop offset="0" style="stop-color:#FEFEFE"/>
   <stop offset="1" style="stop-color:#D62124"/>
  </radialGradient>
 </defs>
 <g id="Слой_x0020_1">
  <metadata id="CorelCorpID_0Corel-Layer"/>
  <path class="fil0" d="M16.492 7.25338c-0.151192,0.0862458 -0.325779,0.120989 -0.499667,0.120989l-0.883758 0c-0.164984,0 -0.334683,-0.0111736 -0.494604,-0.0537727 -0.196061,-0.052376 -0.372743,-0.154509 -0.503683,-0.310939 -0.105101,-0.125353 -0.174412,-0.272704 -0.215789,-0.430356l-0.0441704 -0.137924 -0.857919 0 -0.0474876 0.148573c-0.044345,0.149621 -0.112783,0.290512 -0.21125,0.41185 -0.127448,0.157128 -0.300464,0.262229 -0.494255,0.3167 -0.157303,0.0439959 -0.324557,0.0558678 -0.487446,0.0558678l-0.859316 0c-0.11418,0 -0.229232,-0.0148399 -0.338,-0.0501064 -0.116449,0.0366632 -0.238835,0.0511539 -0.360172,0.0501064l-3.23492 0c-0.263277,0.00209504 -0.519221,-0.0652954 -0.711965,-0.253325l-0.00541219 -0.0052376c-0.191172,-0.191172 -0.262753,-0.446418 -0.260483,-0.710568l0 -2.74119 -1.04804 3.00691c-0.047313,0.13513 -0.112434,0.264324 -0.204965,0.374663l-0.00750723 0.00890392 -0.0066343 0.00733264c-0.115402,0.128321 -0.261007,0.220328 -0.427214,0.267292 -0.120814,0.0340444 -0.246866,0.0467892 -0.371346,0.045218l-1.01522 0c-0.207584,0.00192045 -0.412898,-0.0347428 -0.592897,-0.141764 -0.21125,-0.122909 -0.349173,-0.321589 -0.425468,-0.549948l-1.81256 -5.19291c-0.102308,-0.273577 -0.102133,-0.569327 0.0677397,-0.816368 0.173714,-0.253325 0.457068,-0.354935 0.754913,-0.354935l0.932817 0c0.163762,0 0.330667,0.0118719 0.48989,0.0535981 0.193268,0.0515031 0.368029,0.151716 0.499842,0.30413l0.00576136 0.00680888c0.108244,0.129194 0.179999,0.281434 0.220503,0.443276l0.38863 1.39879 0.386884 -1.39722c0.0403295,-0.161667 0.108069,-0.311987 0.214742,-0.440832 0.127797,-0.155731 0.29994,-0.259436 0.493033,-0.312685 0.15643,-0.0439959 0.322287,-0.0558678 0.484129,-0.0558678l0.924786 0c0.171619,0 0.344983,0.0345682 0.49443,0.120116 0.161842,-0.0886901 0.346729,-0.121512 0.531093,-0.120116l0.919025 0c0.264848,-0.00209504 0.52184,0.0672159 0.713187,0.258563l0.00645971 0.00645971 0.0052376 0.00558678c0.181396,0.191172 0.246866,0.441006 0.244596,0.698696l0 3.40898 1.34641 0c0.141241,-0.00122211 0.282831,0.0178078 0.414644,0.0675651l1.35881 -3.74593c0.047313,-0.133908 0.11191,-0.261706 0.203743,-0.371346l0.00715806 -0.00820558 0.00680888 -0.00768182c0.116449,-0.129369 0.262928,-0.221376 0.430705,-0.267816 0.119941,-0.0336952 0.244596,-0.0466147 0.368203,-0.0448688l0.921469 0c0.207933,-0.00384091 0.416913,0.0349173 0.597436,0.142637l0.0078564 0.00471384c0.200076,0.123433 0.333111,0.314256 0.412548,0.532839l1.12416 3.09315 0 -2.80369c-0.00226963,-0.264673 0.0693109,-0.519919 0.260833,-0.711441l0.00506302 -0.00506302c0.192569,-0.187681 0.448688,-0.255246 0.711441,-0.253151l1.995 0c0.563741,0.00157128 1.13307,0.0928801 1.64234,0.343761 0.472955,0.233073 0.85565,0.578755 1.11666,1.03827 0.268165,0.468591 0.373616,0.995494 0.375187,1.53165l0 1.22944c-0.00157128,0.533886 -0.107545,1.05869 -0.374314,1.52536 -0.260833,0.460909 -0.642828,0.806591 -1.11596,1.04141 -0.508397,0.252452 -1.07842,0.343063 -1.64199,0.346031l-1.99657 0c-0.185411,0.00157128 -0.370822,-0.0316002 -0.533188,-0.120989zm8.89764 -1.60899l0 0.773419c0.00226963,0.258039 -0.063375,0.507873 -0.244596,0.699045l-0.00645971 0.00680888 -0.0052376 0.00506302c-0.191347,0.191522 -0.448513,0.261007 -0.712838,0.258738l-0.919025 0c-0.263277,0.00226963 -0.519221,-0.0652954 -0.711965,-0.253151l-0.00541219 -0.00541219c-0.191172,-0.190998 -0.262578,-0.446244 -0.260309,-0.710568l0 -5.11696c-0.00226963,-0.264673 0.0691363,-0.520094 0.260483,-0.711266l0.0052376 -0.00506302c0.192569,-0.187855 0.448688,-0.255595 0.711441,-0.253325l2.25601 0c0.365235,0 0.729249,0.0513285 1.07528,0.171619 0.329969,0.116275 0.630782,0.292084 0.886028,0.532315 0.258388,0.243199 0.450434,0.5386 0.579803,0.868394 0.136701,0.348301 0.191522,0.720694 0.193093,1.09396l0 0.00488843c-0.00157128,0.369426 -0.0558678,0.740248 -0.191696,1.08523 -0.127972,0.327176 -0.319494,0.619783 -0.575787,0.860713 -0.254722,0.239533 -0.554837,0.412548 -0.884282,0.527601 -0.342539,0.11837 -0.704457,0.167952 -1.06603,0.167952l-0.383742 0zm18.4282 -5.14699c0.17546,-0.122211 0.387233,-0.167429 0.601626,-0.165683l4.045 0c0.263277,-0.00226963 0.519396,0.06547 0.712314,0.2535l0.00506302 0.00506302c0.191172,0.190998 0.262753,0.446418 0.260309,0.710568l0 0.730646c0.00226963,0.266594 -0.0672159,0.524982 -0.260134,0.717726 -0.192744,0.192744 -0.450958,0.262404 -0.717028,0.260134l-0.585739 0 0 3.40846c0.00226963,0.264848 -0.0693109,0.520094 -0.260833,0.711441l-0.00506302 0.00506302c-0.192744,0.187855 -0.448688,0.25542 -0.711441,0.253151l-0.919025 0c-0.264848,0.00226963 -0.522014,-0.0673905 -0.713885,-0.259087l-0.00593595 -0.00611054 -0.0052376 -0.00541219c-0.181221,-0.191172 -0.246691,-0.441006 -0.244421,-0.698522l0 -3.40898 -0.593595 0c-0.0775165,0.000698347 -0.155208,-0.00488843 -0.231502,-0.018157l0 3.42661c0.00244421,0.261356 -0.0666921,0.513983 -0.252627,0.704632l-0.00645971 0.00680888 -0.00541219 0.00506302c-0.190823,0.186284 -0.443625,0.25542 -0.704457,0.253151l-0.921993 0c-0.170397,0 -0.336952,-0.0295052 -0.488843,-0.108069 -0.154684,-0.078564 -0.279863,-0.197283 -0.371695,-0.343063l-0.628163 -0.966861 0 0.448339c0.00226963,0.264673 -0.0693109,0.519919 -0.260658,0.711441l-0.0052376 0.0052376c-0.192744,0.187681 -0.448688,0.255246 -0.711441,0.252976l-0.820907 0c-0.263277,0.00226963 -0.519221,-0.06547 -0.712139,-0.2535l-0.0052376 -0.0052376c-0.016062,-0.0158874 -0.0314256,-0.0326477 -0.0460909,-0.0501064 -0.0157128,0.0186808 -0.0322985,0.0368378 -0.0497572,0.0541219 -0.187681,0.189077 -0.438213,0.256992 -0.698347,0.254722l-0.959703 0c-0.260483,0.00226963 -0.510841,-0.0656446 -0.698347,-0.254547 -0.189077,-0.187681 -0.257166,-0.438213 -0.254897,-0.698347l0 -5.14944c-0.00226963,-0.261356 0.0659938,-0.511365 0.254722,-0.700093 0.188205,-0.188205 0.438562,-0.25577 0.698347,-0.253325l0.959354 0c0.260134,-0.00244421 0.510666,0.0651209 0.698696,0.253325 0.0176333,0.0176333 0.0343936,0.0359649 0.050281,0.0549948 0.0146653,-0.0171095 0.0300289,-0.0338698 0.0460909,-0.0499318l0.00506302 -0.00506302c0.192744,-0.187855 0.448863,-0.255595 0.711616,-0.253325l0.96302 0c0.172492,0 0.343936,0.0275847 0.499143,0.107196l0.00488843 0.0026188c0.152414,0.0801353 0.275149,0.198505 0.365934,0.343761l0.577708 0.901741 0 -0.385662c-0.00226963,-0.258214 0.0632004,-0.508047 0.244596,-0.69922l0.00611054 -0.00628512 0.00541219 -0.00541219c0.191522,-0.191347 0.448688,-0.261007 0.713012,-0.258738l0.828938 0c0.214043,-0.00174587 0.424071,0.044345 0.599007,0.165683zm-24.9044 2.49869l0 1.70065 0.0481859 0c0.0549948,0 0.248612,-0.0103006 0.288592,-0.047313 0.0329969,-0.0319494 0.0384091,-0.164984 0.0380599,-0.208631l0 -0.00506302 0 -1.18405c0.000349173,-0.0438213 -0.00453926,-0.175809 -0.0378853,-0.208282 -0.040155,-0.0370124 -0.233772,-0.047313 -0.288766,-0.047313l-0.0481859 0zm6.45517 -0.097594l0 0.17738 0.164112 0c0.0455671,0 0.0748977,-0.0467892 0.0748977,-0.0886901 0,-0.0420754 -0.0293306,-0.0886901 -0.0748977,-0.0886901l-0.164112 0zm-9.21818 1.77729l0 -3.38838c-0.00192045,-0.236041 0.0586611,-0.465972 0.230105,-0.637416l0.00471384 -0.00471384c0.173015,-0.168476 0.404343,-0.225915 0.639337,-0.22382l1.995 0c0.548377,0.00122211 1.10252,0.0892138 1.59729,0.333111 0.455322,0.224344 0.822129,0.55571 1.07266,0.99689 0.259087,0.452878 0.360172,0.962148 0.361744,1.48084l0 1.22909c-0.00157128,0.516602 -0.103181,1.02395 -0.360871,1.47473 -0.250707,0.442752 -0.616815,0.774118 -1.07231,1.00021 -0.49408,0.245294 -1.04909,0.332239 -1.59642,0.335207l-1.9971 0c-0.189776,0.00139669 -0.377282,-0.0356157 -0.533537,-0.138796 -0.142637,0.0982923 -0.318446,0.138796 -0.49862,0.138796l-0.883758 0c-0.154858,0 -0.317922,-0.0103006 -0.468067,-0.0504556 -0.175634,-0.0467892 -0.333984,-0.137225 -0.451481,-0.277418 -0.0960227,-0.114529 -0.15835,-0.24931 -0.195712,-0.392995l-0.0677397 -0.212123 -1.00824 0 -0.0708822 0.221725c-0.0405041,0.136527 -0.102832,0.265896 -0.192744,0.376933 -0.114005,0.140542 -0.268864,0.233597 -0.442054,0.282307 -0.147351,0.0412025 -0.307273,0.0520268 -0.459687,0.0520268l-0.859316 0c-0.117148,0 -0.23255,-0.0169349 -0.337651,-0.0558678 -0.113481,0.0406787 -0.236216,0.0567407 -0.360347,0.0558678l-3.23579 0c-0.234994,0.00192045 -0.466496,-0.055344 -0.639337,-0.223995l-0.00488843 -0.00471384c-0.171444,-0.171444 -0.232026,-0.401375 -0.230105,-0.637416l0 -3.34892 -1.24795 3.58042c-0.0432975,0.123258 -0.102133,0.241803 -0.186459,0.342365l-0.00593595 0.00698347 -0.00611054 0.00680888c-0.102482,0.113831 -0.231153,0.195363 -0.378679,0.237089 -0.111037,0.031251 -0.22801,0.0427738 -0.343063,0.0413771l-1.01627 0c-0.188554,0.00174587 -0.376234,-0.0302035 -0.540346,-0.127623 -0.189427,-0.110339 -0.311637,-0.289814 -0.380075,-0.494779l-1.81326 -5.19483c-0.0902613,-0.241628 -0.0956735,-0.502286 0.0560423,-0.722789 0.154509,-0.225217 0.40766,-0.310066 0.670064,-0.310066l0.932817 0c0.153636,0 0.313558,0.0108244 0.463528,0.0501064 0.17319,0.0460909 0.329969,0.134956 0.44799,0.271482l0.0026188 0.00314256 0.00279339 0.00296797c0.0981177,0.117322 0.162715,0.256119 0.199902,0.403819l0.48797 1.75687 0.486399 -1.75634c0.0364886,-0.146653 0.0974194,-0.284053 0.19449,-0.4012 0.114703,-0.139669 0.269213,-0.231502 0.441355,-0.27899 0.146304,-0.0410279 0.304828,-0.0518523 0.45637,-0.0518523l0.924786 0c0.178602,0 0.35284,0.0405041 0.493033,0.137749 0.156081,-0.102482 0.343063,-0.13932 0.532315,-0.137749l0.919898 0c0.236041,-0.00209504 0.468242,0.0569153 0.640035,0.228534l0.00488843 0.00488843 0.00471384 0.00488843c0.162889,0.171619 0.218408,0.397359 0.216313,0.627814l0 3.51199 1.44994 0c0.166207,-0.00139669 0.329969,0.0272355 0.472606,0.104228l1.39704 -3.85103c0.0431229,-0.122211 0.101784,-0.239358 0.185411,-0.339222l0.00576136 -0.00698347 0.00611054 -0.00680888c0.103355,-0.114703 0.232899,-0.196235 0.381996,-0.237438 0.110339,-0.0309019 0.225566,-0.0425992 0.340095,-0.0408533l0.923389 0c0.188903,-0.00349173 0.378679,0.0298543 0.54279,0.127797l0.00349173 0.00209504 0.00349173 0.00209504c0.180174,0.111212 0.298369,0.284053 0.369775,0.480288l1.32372 3.64205zm2.66018 -1.78253l0 1.90631 0.151018 0c0.0855475,0 0.292782,-0.0104752 0.360347,-0.0762944 0.0619783,-0.0602324 0.0698347,-0.204441 0.0691363,-0.282831l0 -0.00471384 0 -1.18335c0.000698347,-0.0790878 -0.00680888,-0.222074 -0.0691363,-0.282656 -0.0677397,-0.0659938 -0.2748,-0.076469 -0.360347,-0.076469l-0.151018 0zm6.4763 2.64831l0 0.876949c0.00192045,0.230454 -0.0535981,0.456021 -0.216313,0.627465l-0.00488843 0.0052376 -0.00488843 0.00471384c-0.171619,0.171793 -0.403819,0.230804 -0.640035,0.228709l-0.919898 0c-0.234994,0.00209504 -0.466321,-0.0551694 -0.639337,-0.223995l-0.00488843 -0.00471384c-0.171444,-0.171444 -0.232026,-0.4012 -0.229931,-0.637416l0 -5.11784c-0.00209504,-0.236041 0.0586611,-0.466147 0.230105,-0.637591l0.00471384 -0.00453926c0.173015,-0.168651 0.404343,-0.225915 0.639337,-0.223995l2.25618 0c0.353364,0 0.70568,0.0492335 1.04124,0.165857 0.3167,0.111561 0.604594,0.279688 0.849539,0.510142 0.247389,0.232899 0.430531,0.515031 0.554662,0.831033 0.131988,0.336603 0.184364,0.696252 0.18576,1.05642l0 0.00453926c-0.00139669,0.35703 -0.0534235,0.715107 -0.184364,1.04804 -0.12256,0.313383 -0.305352,0.592722 -0.550647,0.823351 -0.243898,0.229407 -0.530918,0.394741 -0.847444,0.505254 -0.331715,0.114703 -0.68211,0.162366 -1.03233,0.162366l-0.486573 0zm-0.021125 -2.7459l0.266943 0c0.0977686,0 0.177729,0.0860713 0.177729,0.191522l0 0c0,0.105276 -0.0799607,0.191522 -0.177729,0.191522l-0.266943 0 0 -0.383043zm18.5521 -2.16837c0.16708,-0.144209 0.38252,-0.19449 0.601451,-0.192744l4.04587 0c0.234994,-0.00192045 0.466496,0.055344 0.639511,0.223995l0.00453926 0.00453926c0.171619,0.171444 0.2322,0.40155 0.230105,0.637591l0 0.731518c0.00209504,0.237787 -0.0569153,0.47121 -0.229931,0.644225 -0.173015,0.173015 -0.406438,0.232026 -0.644225,0.230105l-0.688919 0 0 3.51199c0.00209504,0.236216 -0.0584866,0.465972 -0.229931,0.637416l-0.00488843 0.00471384c-0.172841,0.168825 -0.404343,0.22609 -0.639337,0.223995l-0.919898 0c-0.236041,0.00209504 -0.468242,-0.0569153 -0.640035,-0.228709l-0.00488843 -0.00471384 -0.00471384 -0.0052376c-0.162889,-0.171444 -0.218408,-0.39701 -0.216313,-0.627465l0 -3.51199 -0.69695 0c-0.114529,0.000872934 -0.227836,-0.0123957 -0.33381,-0.0460909l0 3.55808c0.00209504,0.233248 -0.0567407,0.461258 -0.22382,0.632702l-0.00471384 0.00471384 -0.00471384 0.00471384c-0.171444,0.16708 -0.399454,0.22609 -0.632702,0.223995l-0.922167 0c-0.153636,0 -0.304654,-0.0256643 -0.442054,-0.0968956 -0.138098,-0.0701839 -0.249659,-0.176333 -0.332064,-0.307098l-0.817415 -1.25825 0 0.796116c0.00192045,0.236041 -0.0586611,0.465972 -0.229931,0.637416l-0.00506302 0.00488843c-0.173015,0.168651 -0.404343,0.225915 -0.639337,0.22382l-0.82178 0c-0.234819,0.00209504 -0.466321,-0.0551694 -0.639162,-0.223995l-0.00488843 -0.00471384c-0.0483605,-0.0483605 -0.0878171,-0.10126 -0.119592,-0.157652 -0.0317748,0.0579628 -0.0719297,0.112434 -0.121687,0.161842 -0.167952,0.169 -0.393344,0.226614 -0.62537,0.224519l-0.960402 0c-0.232026,0.00209504 -0.457417,-0.0555186 -0.625195,-0.224519 -0.169175,-0.167778 -0.226788,-0.393344 -0.224693,-0.62537l0 -5.15031c-0.00209504,-0.23255 0.0555186,-0.457592 0.224693,-0.626766 0.168302,-0.168302 0.393868,-0.225217 0.625195,-0.223122l0.960402 0c0.231327,-0.00209504 0.456893,0.0548202 0.62537,0.223122 0.0497572,0.0499318 0.0899122,0.104752 0.121862,0.163064 0.0317748,-0.0563915 0.0712314,-0.109291 0.119592,-0.157652l0.00471384 -0.00453926c0.172841,-0.168651 0.404343,-0.225915 0.639337,-0.223995l0.963195 0c0.155731,0 0.311637,0.0237438 0.451656,0.0956735l0.00453926 0.00226963c0.136527,0.0717551 0.245469,0.177555 0.327001,0.307971l0.767309 1.19767 0 -0.737454c-0.00192045,-0.230454 0.0535981,-0.456021 0.216313,-0.627639l0.00488843 -0.00488843 0.00471384 -0.00488843c0.171793,-0.171793 0.403994,-0.230629 0.64021,-0.228709l0.829811 0c0.217884,-0.00192045 0.431404,0.049408 0.598309,0.192744z"/>
  <path class="fil0" d="M32.0283 0c1.9751,0 3.57728,1.60218 3.57728,3.57746 0,0.195188 -0.0158874,0.390551 -0.0474876,0.583294 -0.132511,0.805019 -0.532839,1.38604 -0.914311,2.08282l-0.0153636 0.0282831 -2.43391 3.52281 -2.78064 -3.64293 -0.0167603 -0.0274101c-0.385837,-0.630956 -0.732566,-1.10845 -0.879219,-1.85551 -0.0446942,-0.227661 -0.0670413,-0.459512 -0.0670413,-0.691363 0,-1.97527 1.60218,-3.57746 3.57746,-3.57746zm0 2.7871c-0.436641,0 -0.790354,0.353713 -0.790354,0.790354 0,0.436467 0.353713,0.79018 0.790354,0.79018 0.436467,0 0.79018,-0.353713 0.79018,-0.79018 0,-0.436641 -0.353713,-0.790354 -0.79018,-0.790354zm0 -2.68427c1.91836,0 3.47445,1.55609 3.47445,3.47463 0,0.189601 -0.0153636,0.379377 -0.0460909,0.566709 -0.13094,0.795068 -0.526379,1.36195 -0.903137,2.05l-0.0129194 0.0235692 -2.35029 3.402 -2.69143 -3.52613 -0.0141415 -0.0230454c-0.381472,-0.623798 -0.720519,-1.08087 -0.86595,-1.82146 -0.0434721,-0.221201 -0.0651209,-0.446244 -0.0651209,-0.671635 0,-1.91853 1.55609,-3.47463 3.47463,-3.47463zm0 2.58126c-0.493382,0 -0.89336,0.399978 -0.89336,0.89336 0,0.493208 0.399978,0.893186 0.89336,0.893186 0.493208,0 0.893011,-0.399978 0.893011,-0.893186 0,-0.493382 -0.399804,-0.89336 -0.893011,-0.89336z"/>
  <path class="fil1" d="M5.9335 0.941197l-0.924786 0c-0.132337,0 -0.23866,0.010999 -0.316351,0.0328223 -0.0790878,0.0218233 -0.139146,0.0586611 -0.180174,0.109117 -0.04225,0.0504556 -0.0722789,0.117322 -0.0927056,0.201822l-0.777435 2.80701c-0.0354411,0.122734 -0.0640733,0.244072 -0.0858967,0.366807 -0.0218233,0.122909 -0.0394566,0.236041 -0.053249,0.338349 -0.0122211,0.102133 -0.0204266,0.184014 -0.0258388,0.246866 -0.00541219,0.0614545 -0.00680888,0.0941023 -0.00680888,0.0954989l-0.0736756 0c0,-0.00139669 -0.00419008,-0.0340444 -0.00960227,-0.0968956 -0.00680888,-0.0628512 -0.0176333,-0.145955 -0.031251,-0.249659 -0.0150145,-0.10353 -0.0328223,-0.216837 -0.0560423,-0.340968 -0.02322,-0.122734 -0.0504556,-0.245469 -0.0831033,-0.368203l-0.777435 -2.7988c-0.0204266,-0.0845 -0.053249,-0.151367 -0.0954989,-0.201822 -0.0436467,-0.0504556 -0.106323,-0.0872934 -0.188205,-0.109117 -0.0832779,-0.0218233 -0.192395,-0.0328223 -0.330144,-0.0328223l-0.932817 0c-0.122734,0 -0.203219,0.0286322 -0.241453,0.0846746 -0.0396312,0.0572645 -0.0382345,0.140368 0.0040155,0.250881l1.81675 5.20478c0.034219,0.10353 0.0845,0.175983 0.151367,0.214218 0.06547,0.0394566 0.156953,0.0572645 0.274276,0.0556932l1.0229 0c0.0776911,0.00157128 0.144558,-0.0066343 0.197807,-0.0216488 0.0530744,-0.0150145 0.0967211,-0.0436467 0.133559,-0.0846746 0.0354411,-0.04225 0.0668667,-0.102133 0.0941023,-0.179999l1.80854 -5.18837c0.0410279,-0.110513 0.0450434,-0.193617 0.0123957,-0.250881 -0.034219,-0.0560423 -0.11191,-0.0846746 -0.233248,-0.0846746zm1.94769 0l-0.924786 0c-0.129543,-0.00122211 -0.221027,0.0246167 -0.274101,0.076469 -0.053249,0.053249 -0.0790878,0.141764 -0.0778657,0.267292l0 5.1229c-0.00122211,0.125528 0.0246167,0.214218 0.0778657,0.267467 0.0530744,0.0516777 0.144558,0.0776911 0.274101,0.0761198l3.24068 0c0.125528,0.00157128 0.214218,-0.0244421 0.267292,-0.0761198 0.0518523,-0.053249 0.0778657,-0.141939 0.076469,-0.267467l0 -0.744612c0.00139669,-0.128321 -0.0246167,-0.218408 -0.076469,-0.270086 -0.0530744,-0.0506302 -0.141764,-0.0750723 -0.267292,-0.0736756l-1.97231 0 0 -4.03452c0.00139669,-0.125528 -0.0230454,-0.214043 -0.073501,-0.267292 -0.0518523,-0.0518523 -0.141939,-0.0776911 -0.270086,-0.076469zm8.34856 5.47487l-1.89182 -5.20478c-0.0382345,-0.104927 -0.0900868,-0.175983 -0.15416,-0.21544 -0.0640733,-0.0382345 -0.153986,-0.0572645 -0.271308,-0.0546456l-0.932992 0c-0.0776911,-0.00122211 -0.143161,0.00680888 -0.19641,0.0219979 -0.0544711,0.0150145 -0.0981177,0.0436467 -0.134956,0.0845 -0.0356157,0.04225 -0.0668667,0.102133 -0.0941023,0.179999l-1.88222 5.18837c-0.0424246,0.110513 -0.0478368,0.193617 -0.0150145,0.250881 0.0326477,0.0558678 0.110513,0.0845 0.235867,0.0845l0.859316 0c0.134956,0 0.241453,-0.0108244 0.319145,-0.0326477 0.0776911,-0.0218233 0.137749,-0.0584866 0.178602,-0.109117 0.0410279,-0.0504556 0.0750723,-0.117322 0.099689,-0.201822l0.188205 -0.58923 1.76769 0 0.188205 0.58923c0.0204266,0.0845 0.0516777,0.151367 0.0941023,0.201822 0.04225,0.0506302 0.104927,0.0872934 0.186808,0.109117 0.0818812,0.0218233 0.193617,0.0326477 0.334159,0.0326477l0.883758 0c0.121512,0 0.201822,-0.0286322 0.241453,-0.0845 0.0382345,-0.0572645 0.0368378,-0.140368 -0.0040155,-0.250881zm-2.59558 -2.83965l0.302733 0.957434 -1.0229 0 0.302733 -0.965639c0.0410279,-0.139146 0.0722789,-0.275498 0.0942768,-0.409231 0.0216488,-0.133559 0.0366632,-0.256468 0.0448688,-0.36541 0.00960227,-0.109117 0.0150145,-0.196585 0.0164112,-0.26188 0,-0.0656446 0.00139669,-0.099689 0,-0.101086l0.0818812 0c0,0.00139669 0.00139669,0.0354411 0.00541219,0.101086 0.0040155,0.0652954 0.0122211,0.152763 0.02322,0.263102 0.0122211,0.110513 0.0300289,0.231851 0.0544711,0.368378 0.0246167,0.134956 0.0572645,0.272704 0.0968956,0.413247zm5.38478 -2.63521l-1.99675 0c-0.129718,-0.00122211 -0.221027,0.0246167 -0.274276,0.076469 -0.0530744,0.053249 -0.0790878,0.141764 -0.0776911,0.267292l0 5.1229c-0.00139669,0.125528 0.0246167,0.214218 0.0776911,0.267467 0.053249,0.0516777 0.144558,0.0776911 0.274276,0.0761198l1.99675 0c0.5386,-0.0026188 0.994271,-0.0953244 1.36789,-0.28091 0.37379,-0.185411 0.657494,-0.448688 0.85111,-0.790878 0.195013,-0.341142 0.291909,-0.74758 0.293306,-1.21949l0 -1.22752c-0.00139669,-0.474527 -0.0982923,-0.882536 -0.293306,-1.2235 -0.193617,-0.340793 -0.47732,-0.604245 -0.85111,-0.788259 -0.373616,-0.184189 -0.829287,-0.278291 -1.36789,-0.279688zm0.891964 2.31607l0 1.17829c0.00279339,0.290512 -0.0736756,0.511539 -0.226439,0.660287 -0.152763,0.148573 -0.39282,0.223646 -0.722964,0.223646l-0.670937 0 0 -2.94615 0.670937 0c0.330144,0 0.5702,0.0750723 0.722964,0.223646 0.152763,0.148748 0.229232,0.368378 0.226439,0.660287z"/>
  <path class="fil1" d="M48.4675 0.954466l-4.05094 0c-0.128147,-0.00139669 -0.218233,0.0246167 -0.269911,0.0762944 -0.0504556,0.053249 -0.0750723,0.141939 -0.0736756,0.267467l0 0.736407c-0.00139669,0.129543 0.02322,0.221027 0.0736756,0.274276 0.0516777,0.0530744 0.141764,0.0790878 0.269911,0.0776911l1.21949 0 0 4.03452c-0.00139669,0.125353 0.0230454,0.214043 0.073501,0.267292 0.0518523,0.0518523 0.141939,0.0776911 0.270086,0.0762944l0.924786 0c0.129543,0.00139669 0.221027,-0.0244421 0.274101,-0.0762944 0.053249,-0.053249 0.0792624,-0.141939 0.0778657,-0.267292l0 -4.03452 1.21111 0c0.129543,0.00139669 0.220852,-0.0246167 0.274101,-0.0776911 0.053249,-0.053249 0.0790878,-0.144732 0.0776911,-0.274276l0 -0.736407c0.00139669,-0.125528 -0.0244421,-0.214218 -0.0776911,-0.267467 -0.053249,-0.0516777 -0.144558,-0.0776911 -0.274101,-0.0762944z"/>
  <path class="fil1" d="M43.2219 0.954466l-0.834699 0c-0.128147,-0.00139669 -0.218233,0.0246167 -0.270086,0.0762944 -0.0504556,0.053249 -0.0750723,0.141939 -0.0736756,0.267467l0 1.34205c0,0.164984 0.00419008,0.317748 0.0136178,0.4541 0.00820558,0.137749 0.0218233,0.268689 0.0410279,0.39282 0.0176333,0.122734 0.04225,0.246866 0.0708822,0.370997 0.0286322,0.124131 0.0640733,0.255071 0.10353,0.394217 0.0410279,0.137749 0.087468,0.290512 0.13932,0.45829l-0.06547 0c-0.0642479,-0.15416 -0.120116,-0.293306 -0.166556,-0.417437 -0.0476622,-0.123957 -0.0941023,-0.241279 -0.140368,-0.353189 -0.0450434,-0.11191 -0.0982923,-0.225042 -0.15835,-0.342365 -0.0584866,-0.117322 -0.133559,-0.245469 -0.222249,-0.384615l-1.34205 -2.09504c-0.0354411,-0.0572645 -0.0778657,-0.0981177 -0.129543,-0.125353 -0.0504556,-0.0260134 -0.122734,-0.0382345 -0.214218,-0.0382345l-0.965639 0c-0.129543,-0.00139669 -0.221027,0.0246167 -0.274101,0.0762944 -0.053249,0.053249 -0.0790878,0.141939 -0.0778657,0.267467l0 5.1229c-0.00122211,0.125353 0.0246167,0.214043 0.0778657,0.267292 0.0530744,0.0518523 0.144558,0.0776911 0.274101,0.0762944l0.826494 0c0.129543,0.00139669 0.221027,-0.0244421 0.274101,-0.0762944 0.053249,-0.053249 0.0792624,-0.141939 0.0778657,-0.267292l0 -1.33402c0,-0.225042 -0.00541219,-0.425468 -0.0178078,-0.602848 -0.0122211,-0.17738 -0.0300289,-0.343587 -0.0530744,-0.499143 -0.02322,-0.155557 -0.0504556,-0.313732 -0.0846746,-0.476098 -0.0326477,-0.160794 -0.0708822,-0.339571 -0.114529,-0.533188l0.06547 0c0.0546456,0.182618 0.106498,0.347777 0.155557,0.495128 0.0490589,0.145955 0.0995144,0.283703 0.152589,0.41185 0.053249,0.128147 0.11191,0.255071 0.178777,0.380425 0.0668667,0.125528 0.144558,0.257865 0.233248,0.398407l1.26017 1.93948c0.0356157,0.0572645 0.0790878,0.0981177 0.13094,0.124131 0.0518523,0.0272355 0.120116,0.0394566 0.204616,0.0394566l0.924786 0c0.125528,0.00139669 0.214043,-0.0244421 0.267292,-0.0762944 0.0518523,-0.053249 0.0776911,-0.141939 0.076469,-0.267292l0 -5.1229c0.00122211,-0.125528 -0.0246167,-0.214218 -0.076469,-0.267467 -0.053249,-0.0516777 -0.141764,-0.0776911 -0.267292,-0.0762944z"/>
  <path class="fil1" d="M36.2086 1.28182l0 5.15555c-0.00139669,0.121512 0.0218233,0.206012 0.0722789,0.255071 0.0492335,0.0504556 0.133733,0.0736756 0.255071,0.0722789l0.965639 0c0.121512,0.00139669 0.206012,-0.0218233 0.255071,-0.0722789 0.0504556,-0.0490589 0.0736756,-0.133559 0.0722789,-0.255071l0 -5.15555c0.00139669,-0.121338 -0.0218233,-0.206012 -0.0722789,-0.256468 -0.0490589,-0.0490589 -0.133559,-0.0722789 -0.255071,-0.0708822l-0.965639 0c-0.121338,-0.00139669 -0.205838,0.0218233 -0.255071,0.0708822 -0.0504556,0.0504556 -0.0736756,0.13513 -0.0722789,0.256468z"/>
  <path class="fil1" d="M25.577 3.5895l-0.810082 0 0 -1.2029 0.810082 0c0.128321,0 0.23866,0.0258388 0.330144,0.0762944 0.0913089,0.0504556 0.160969,0.121338 0.210028,0.211425 0.0490589,0.0914835 0.0736756,0.19641 0.0736756,0.317748 0,0.120116 -0.0246167,0.225217 -0.0736756,0.315129 -0.0490589,0.0886901 -0.118719,0.158176 -0.210028,0.207409 -0.0914835,0.0490589 -0.201822,0.073501 -0.330144,0.0748977zm0.180174 -2.63504l-2.2588 0c-0.129543,-0.00139669 -0.220852,0.0246167 -0.274101,0.0762944 -0.053249,0.053249 -0.0790878,0.141939 -0.0776911,0.267467l0 5.1229c-0.00139669,0.125353 0.0244421,0.214043 0.0776911,0.267292 0.053249,0.0518523 0.144558,0.0776911 0.274101,0.0762944l0.924786 0c0.128147,0.00139669 0.218233,-0.0244421 0.270086,-0.0762944 0.0504556,-0.053249 0.0750723,-0.141939 0.0736756,-0.267292l0 -1.39949 1.00649 0c0.317748,0 0.605641,-0.0450434 0.861935,-0.133559 0.257865,-0.0900868 0.477495,-0.21963 0.661684,-0.39282 0.182618,-0.171968 0.324557,-0.383392 0.422674,-0.634274 0.0982923,-0.249659 0.147351,-0.537378 0.148748,-0.860713 -0.00139669,-0.325953 -0.0504556,-0.615069 -0.14997,-0.868744 -0.099689,-0.253675 -0.241453,-0.467892 -0.427039,-0.642305 -0.185411,-0.174587 -0.406438,-0.307098 -0.665525,-0.398407 -0.259261,-0.0899122 -0.548377,-0.136352 -0.868744,-0.136352z"/>
  <path class="fil2" d="M34.9828 3.58514l0 -0.00768182c0,-1.63169 -1.32302,-2.95471 -2.95453,-2.95471 -1.63151,0 -2.95471,1.32302 -2.95471,2.95471 0,0.195537 0.01903,0.386535 0.055344,0.571597 0.129369,0.658541 0.441704,1.06515 0.799433,1.65037l2.241 2.93603 1.92831 -2.79094c0.357903,-0.653827 0.729598,-1.17776 0.845873,-1.88466 0.0253151,-0.154509 0.0389328,-0.313209 0.039282,-0.474701zm-2.95453 -1.42079c0.780228,0 1.41293,0.632702 1.41293,1.41311 0,0.780228 -0.632702,1.41293 -1.41293,1.41293 -0.780403,0 -1.41311,-0.632702 -1.41311,-1.41293 0,-0.780403 0.632702,-1.41311 1.41311,-1.41311l0 0z"/>
 </g>
</svg>
